<svg xmlns="http://www.w3.org/2000/svg" viewBox="0 0 32 32" width="32" height="32">
  <defs>
    <linearGradient id="mq" x1="0" y1="0" x2="1" y2="1">
      <stop offset="0" stop-color="#12b3aa"/>
      <stop offset="1" stop-color="#0c7aa8"/>
    </linearGradient>
  </defs>
  <rect width="32" height="32" rx="8" fill="url(#mq)"/>
  <g transform="translate(6.65,5) scale(0.85)" fill="#ffffff">
    <path d="M11 1.6c2.6 0 3.6-.9 5.6-.9 2.8 0 4.4 2.1 4.4 5.4 0 3.2-1.2 5-1.8 7.6-.6 2.4-.6 5.3-1.3 8-.4 1.6-1 2.7-2 2.7-1.3 0-1.7-1.5-2.1-3.6-.4-2-.7-4.2-1.8-4.2s-1.4 2.2-1.8 4.2c-.4 2.1-.8 3.6-2.1 3.6-1 0-1.6-1.1-2-2.7-.7-2.7-.7-5.6-1.3-8C4.2 11.1 3 9.3 3 6.1 3 2.8 4.6.7 7.4.7c2 0 3 .9 3.6.9Z"/>
  </g>
</svg>
